<svg id="Camada_1" data-name="Camada 1" xmlns="http://www.w3.org/2000/svg" viewBox="0 0 1171.71 584.79"><defs><style>.cls-1{fill:#111;}.cls-2{fill:#ff1d25;}</style></defs><path class="cls-1" d="M956.73,635.88c4,10.26,7.77,20.19,11.92,29.94.49,1.14,3.2,1.85,4.9,1.87,32.66.46,65.32.77,98,1.16,19.49.23,39,.67,58.48.77,3.72,0,4.82,1.12,5,4.78.34,8.1,1.21,16.18,1.89,24.68-14,.46-27.43.73-40.88,1.39-18.29.88-36.58,2-54.86,3.14a50.25,50.25,0,0,0-7.87,1.29c-20.51,4.5-29.42,13.21-31.42,34.42-1.88,20-1.72,40.15-2.48,60.78H1356.7V832h-389V779.87L966,779.5c-.83,1.46-1.75,2.87-2.48,4.38-8.77,18.17-22.5,31.87-40,41.36-6.28,3.41-14.28,4.46-21.61,5-34.27,2.59-68.58,3-102.87.25C780.21,829,763.28,823,749.88,809c-1.5-1.56-3.19-2.93-4.81-4.37a8.63,8.63,0,0,0-1.64-.68V832H531.26a9.79,9.79,0,0,1-.42-2c.28-25.82.42-51.65.93-77.47a118.9,118.9,0,0,1,8-41.47,59.27,59.27,0,0,0,1.94-6.19c.86-3.18.13-5.32-3.71-5.08-4.31.27-6.29-2.38-6.41-6-.28-8.45-.09-16.91-.09-25.8,7.12,0,14.55-.07,22,0,46.16.53,92.31,1.17,138.47,1.54,4.46,0,5.69,1.49,5.86,5.61.32,8,1.1,15.92,1.74,24.65-2.15,0-4.09,0-6,0-23.83.24-47.66.3-71.48.85-7.45.17-14.91,1.39-22.29,2.61-23.08,3.82-34.61,21.72-36.57,38.47-2.17,18.45-2.26,37.14-3.27,56.22,2.84.16,4.46.32,6.07.34q72,.64,144,1.2a218.58,218.58,0,0,0,22.44-1.17c5.55-.53,6.07-1.86,4.5-7.18-1.79-6.06-3.71-12.1-5-18.27-.84-3.85-2.58-4.86-6.42-4.85-42.66.15-85.33.09-128,.09h-6.24V735.92c2.1,0,4,0,6,0,25.66-.44,51.31-.68,76.95-1.46a79.67,79.67,0,0,0,19.13-3.31c23.85-6.75,38.33-32.86,32-57.15-.41-1.61-1-3.18-1.42-4.78-5.58-19-18.3-29.53-38-30.55q-39.9-2.08-79.86-2.9c-24.82-.48-49.65-.1-74.86-.1V603.9c1.37-.09,2.81-.27,4.25-.26,42.49.31,85,.51,127.47,1.05,11.65.15,23.32,1,34.92,2.12,13.23,1.31,23.52,8.76,32.86,17.56,3.86,3.63,7.19,7.82,10.17,11.09,7.08-6.13,13-11.75,19.39-16.69,13.46-10.37,29.4-12.87,45.78-13.1,57.81-.77,115.63-1.86,173.45-1.93q128.74-.16,257.47,1c17.78.14,35.58,1.92,53.31,3.64,21.67,2.11,34.55,15.84,42.53,34.76,6.38,15.11,7.5,31.31,8,47.5.4,11.66.44,23.32.94,35,.37,8.46,1,9.07,9.24,10.49,3.66.63,5.42,2.91,5.52,6.07.26,8.59.09,17.2.09,26.25L1306,766c0-9.29.27-18.1,0-26.89-.87-23.81-2-47.6-3-71.4a33.12,33.12,0,0,0-.4-4c-3.29-20-10.17-26.71-30.45-27.09-27.48-.52-55-.06-82.45,0a48.62,48.62,0,0,0-5.26.68c4.05,10,7.78,19.54,11.89,28.9.44,1,3.12,1.44,4.76,1.45,22,.09,44,.06,66,.06h5.63V767.85H1028.44V736.18c1.94-.09,3.87-.24,5.8-.25,21-.12,42,.17,63-.51a163.29,163.29,0,0,0,31.63-3.93c24.71-5.77,36.29-24.63,34.57-50a54.15,54.15,0,0,0-2-11.28c-5.69-20.06-16.76-30-38.22-31.47-26.9-1.82-53.89-2.52-80.85-3s-54-.11-81-.1C960.05,635.67,958.75,635.79,956.73,635.88ZM850,635.33c-18,1.12-35.51,1.65-52.87,3.44-16.6,1.72-29.52,9.24-33.79,26.9-1.14,4.67-2.33,9.47-2.44,14.23q-.76,33.2-.84,66.4a102.49,102.49,0,0,0,1.68,15.87c3.42,22.11,13.38,32.45,35.59,35.3,32.66,4.19,65.5,3.85,98.2.77,23.16-2.18,41.84-20.63,43-42.73,1.2-22.91.58-45.92.73-68.89.11-16.8-8.29-29.33-20.09-40.23-4.83-4.47-10.31-7.35-16.85-7.79C884.74,637.42,867.14,636.39,850,635.33ZM1240.6,700.8c-12.84,0-25.45-.33-38,.28-2.58.12-6,3.24-7.28,5.84-3.47,7.35-6,15.14-8.88,22.75-1.11,2.89,0,4.52,2.87,5.07a36.83,36.83,0,0,0,6.41.86c11.33.17,22.65.23,34,.32,3.6,0,7.19,0,10.91,0Z" transform="translate(-374.15 -247.61)"/><path class="cls-2" d="M1338.29,249.36a37.94,37.94,0,0,0-4.83,3.54q-49.73,49.61-99.3,99.36a14.47,14.47,0,0,1-11.3,4.75c-129.47-.13-258.94-.32-388.41.09-24.59.08-49.24,1.88-73.73,4.27-26.52,2.59-49.56,14.26-68.93,32.31-31.44,29.3-62.41,59.12-93.46,88.84-19.14,18.32-38,36.9-57.14,55.24a9.62,9.62,0,0,1-5.94,2.69q-79,.22-158,.11c-.79,0-1.58-.11-3.13-.22,1.47-1.65,2.46-2.88,3.56-4C444.53,470,511.11,403.46,578.37,337.6c17.2-16.85,36-32.28,55.14-46.87,29.29-22.3,63.4-33.2,99.61-38.05,32.44-4.35,65.07-5.07,97.74-5.07h506.26Z" transform="translate(-374.15 -247.61)"/><path class="cls-2" d="M569.77,540.33c1.46-1.64,2.36-2.76,3.37-3.76q58.23-58.05,116.52-116.06c16.1-16,33.46-30.59,56-36.14A267.52,267.52,0,0,1,792.37,377c23.58-1.51,47.28-1.54,70.93-1.57q169.71-.21,339.42-.06h7.35a41.58,41.58,0,0,1-2.73,3.51q-47.88,47.92-95.89,95.69a11.5,11.5,0,0,1-7.43,2.7q-137.47.24-274.93.24c-14.18,0-28.32.8-41.78,6-9.82,3.82-17.83,10.31-25.22,17.6-12.34,12.17-24.5,24.51-36.89,36.63a9.55,9.55,0,0,1-5.94,2.67q-73,.22-146,.11C572.35,540.56,571.42,540.44,569.77,540.33Z" transform="translate(-374.15 -247.61)"/><path class="cls-2" d="M1545.85,249.23a34,34,0,0,0-4,3q-142.14,142-284.16,284.18a13.36,13.36,0,0,1-10.44,4.24q-81.23-.18-162.45-.08h-6.94c1.37-1.64,2.17-2.76,3.12-3.71q143.15-143.14,286.38-286.2a10.14,10.14,0,0,1,6.33-2.93q84.21-.22,168.44-.11c1,0,1.91.1,2.86.15Z" transform="translate(-374.15 -247.61)"/><path class="cls-2" d="M1399.48,540.39H1394V514.72l-1.13-.19c-2.68,7.41-5.38,14.81-8,22.22-.73,2-1.21,4.68-4.11,3.68a6.94,6.94,0,0,1-3.64-3.7c-2.89-7.32-5.46-14.77-9.15-22v25.46l-5.54.42V505.22c7.17-2.12,8.14-1.66,10.47,4.91a192.91,192.91,0,0,0,8.71,21.66l5.85-16.84c.49-1.41,1-2.82,1.48-4.23,2.41-7.05,2.41-7.05,10.59-5.84Z" transform="translate(-374.15 -247.61)"/><path class="cls-2" d="M1328.07,504.39c9.4,0,18-.14,26.62.15,1.26,0,2.44,2.1,3.66,3.22-.31.5-.62,1-.92,1.5h-11.34V540.2H1340V509.79H1328.5C1328.35,507.89,1328.24,506.52,1328.07,504.39Z" transform="translate(-374.15 -247.61)"/><path class="cls-1" d="M787.81,668H907.47v99.69H787.81Zm89.7,66V701.93l-57.39-2.43v36.9Z" transform="translate(-374.15 -247.61)"/></svg>
