<?xml version="1.0" encoding="utf-8"?>
<!-- Generator: Adobe Illustrator 25.4.1, SVG Export Plug-In . SVG Version: 6.00 Build 0)  -->
<svg version="1.1" id="Camada_1" xmlns="http://www.w3.org/2000/svg" xmlns:xlink="http://www.w3.org/1999/xlink" x="0px" y="0px"
	 viewBox="0 0 1171.7 584.8" style="enable-background:new 0 0 1171.7 584.8;" xml:space="preserve">
<style type="text/css">
	.st0{fill:#111111;}
	.st1{fill:#FEFEFE;}
	.st2{fill:#2E8CCA;}
	.st3{fill:#F2F2F2;}
	.st4{fill:#F3F3F3;}
	.st5{fill:#EBEBEB;}
	.st6{fill:#EFEFEF;}
	.st7{fill:#EDEDED;}
</style>
<g>
	<path class="st0" d="M576,366.4c4.2,10.7,8.1,21,12.4,31.1c0.5,1.2,3.3,1.9,5.1,1.9c34,0.5,67.9,0.8,101.9,1.2
		c20.3,0.2,40.6,0.7,60.8,0.8c3.9,0,5,1.2,5.2,5c0.4,8.4,1.3,16.8,2,25.7c-14.6,0.5-28.5,0.8-42.5,1.4c-19,0.9-38,2.1-57.1,3.3
		c-2.8,0.2-5.5,0.7-8.2,1.3c-21.3,4.7-30.6,13.7-32.7,35.8c-2,20.8-1.8,41.8-2.6,63.2H992v33.2H587.5v-54.2l-1.8-0.4
		c-0.9,1.5-1.8,3-2.6,4.6c-9.1,18.9-23.4,33.1-41.6,43c-6.5,3.5-14.9,4.6-22.5,5.2c-35.6,2.7-71.3,3.1-107,0.3
		c-19.6-1.5-37.2-7.8-51.1-22.4c-1.6-1.6-3.3-3-5-4.5c-0.5-0.3-1.1-0.5-1.7-0.7v29.2H133.5c-0.2-0.7-0.4-1.4-0.4-2.1
		c0.3-26.9,0.4-53.7,1-80.6c0.2-14.8,3-29.4,8.3-43.1c0.8-2.1,1.5-4.3,2-6.4c0.9-3.3,0.1-5.5-3.9-5.3c-4.5,0.3-6.5-2.5-6.7-6.2
		c-0.3-8.8-0.1-17.6-0.1-26.8c7.4,0,15.1-0.1,22.9,0c48,0.6,96,1.2,144,1.6c4.6,0,5.9,1.5,6.1,5.8c0.3,8.3,1.1,16.6,1.8,25.6
		c-2.2,0-4.3,0-6.2,0c-24.8,0.2-49.6,0.3-74.3,0.9c-7.7,0.2-15.5,1.4-23.2,2.7c-24,4-36,22.6-38,40c-2.3,19.2-2.4,38.6-3.4,58.5
		c3,0.2,4.6,0.3,6.3,0.4c49.9,0.4,99.8,0.9,149.8,1.2c7.8,0,15.6-0.4,23.3-1.2c5.8-0.6,6.3-1.9,4.7-7.5c-1.9-6.3-3.9-12.6-5.2-19
		c-0.9-4-2.7-5.1-6.7-5c-44.4,0.2-88.7,0.1-133.1,0.1H196v-33.5c2.2,0,4.2,0,6.2,0c26.7-0.5,53.4-0.7,80-1.5
		c6.7-0.3,13.4-1.5,19.9-3.4c24.8-7,39.9-34.2,33.3-59.4c-0.4-1.7-1-3.3-1.5-5c-5.8-19.8-19-30.7-39.5-31.8
		c-27.7-1.4-55.4-2.4-83.1-3c-25.8-0.5-51.6-0.1-77.9-0.1v-33c1.4-0.1,2.9-0.3,4.4-0.3c44.2,0.3,88.4,0.5,132.6,1.1
		c12.1,0.2,24.3,1,36.3,2.2c13.8,1.4,24.5,9.1,34.2,18.3c4,3.8,7.5,8.1,10.6,11.5c7.4-6.4,13.5-12.2,20.2-17.4
		c14-10.8,30.6-13.4,47.6-13.6c60.1-0.8,120.3-1.9,180.4-2c89.3-0.1,178.5,0.2,267.8,1c18.5,0.1,37,2,55.4,3.8
		c22.5,2.2,35.9,16.5,44.2,36.2c6.6,15.7,7.8,32.6,8.3,49.4c0.4,12.1,0.5,24.3,1,36.4c0.4,8.8,1,9.4,9.6,10.9c3.8,0.7,5.6,3,5.7,6.3
		c0.3,8.9,0.1,17.9,0.1,27.3l-52.7-2.5c0-9.7,0.3-18.8,0-28c-0.9-24.8-2.1-49.5-3.1-74.3c-0.1-1.4-0.2-2.8-0.4-4.2
		c-3.4-20.8-10.6-27.8-31.7-28.2c-28.6-0.5-57.2-0.1-85.8,0c-1.8,0.1-3.7,0.4-5.5,0.7c4.2,10.4,8.1,20.3,12.4,30.1
		c0.5,1,3.2,1.5,5,1.5c22.9,0.1,45.8,0.1,68.6,0.1h5.9v104.2H650.6v-32.9c2-0.1,4-0.2,6-0.3c21.8-0.1,43.7,0.2,65.5-0.5
		c11.1-0.3,22.1-1.7,32.9-4.1c25.7-6,37.7-25.6,36-52c-0.3-4-1-7.9-2.1-11.7c-5.9-20.9-17.4-31.2-39.8-32.7c-28-1.9-56-2.6-84.1-3.1
		c-28-0.5-56.2-0.1-84.2-0.1C579.5,366.2,578.1,366.3,576,366.4z M465,365.8c-18.7,1.2-36.9,1.7-55,3.6c-17.3,1.8-30.7,9.6-35.1,28
		c-1.2,4.9-2.4,9.8-2.5,14.8c-0.5,23-0.8,46-0.9,69.1c0.2,5.5,0.7,11.1,1.7,16.5c3.6,23,13.9,33.7,37,36.7c34,4.4,68.1,4,102.1,0.8
		c24.1-2.3,43.5-21.5,44.7-44.4c1.2-23.8,0.6-47.8,0.8-71.6c0.1-17.5-8.6-30.5-20.9-41.8c-5-4.6-10.7-7.6-17.5-8.1
		C501.2,368,482.9,366.9,465,365.8z M871.3,433.9c-13.4,0-26.5-0.3-39.5,0.3c-2.7,0.1-6.2,3.4-7.6,6.1c-3.6,7.6-6.2,15.7-9.2,23.7
		c-1.2,3,0,4.7,3,5.3c2.2,0.5,4.4,0.8,6.7,0.9c11.8,0.2,23.6,0.2,35.4,0.3c3.7,0,7.5,0,11.3,0L871.3,433.9z"/>
	<path class="st0" d="M400.4,399.8h124.5v103.7H400.4V399.8z M493.6,468.4v-33.4l-59.7-2.5v38.4L493.6,468.4z"/>
	<path class="st0" d="M400.9,102.1c-1.6,4.2-4.8,7.3-7.1,11c-1.5,2.6-1,3.9,2.1,3.9c4.6,0,9.2,0,13.8,0c58.9,0,117.9,0,176.8,0
		c2.1,0,4.2,0,6.2,1c2.2,1.1,0.8,3.2,1.4,4.8c-5.4,8.4-10.8,16.7-17.4,24.2c-2.8-2.2-1.5-4.2,0.3-6.2c3-3.2,5.2-6.9,7.4-10.6
		c1.3-2.1,2-4,0.6-6.3c-1.8-1.7-4-1.2-6-1.2c-96.5,0.3-193-0.4-289.5,0.2c-2.8,0-5.2,0.1-7.6,1.5c-1.5,0.9-2.9,0.8-4.2-0.1
		c-0.6-0.6-0.6-1.3-0.1-2c-0.1-0.3-0.1-0.5,0.1-0.7c2-1.8,3.6-4,4.4-6.6c0.6-1.8,1.4-3.1,3.4-3.3c2.4,0.7,3.8,3.2,6.3,3.8
		c11.7,1,23.5,2.8,35.2,1.9c17.4-1.4,34.8-0.6,52.3-0.8c6.6-0.1,10.8-3.3,14.1-8.3c1.6-2.5,2.8-5.3,5.8-6.6
		C399.8,101.5,400.4,101.7,400.9,102.1z"/>
	<path class="st0" d="M286,112.5c-3.4,2.4-2.9,8.4-8.2,9.1c1.3-6.1,5.6-10.7,8.5-15.9c8.4-15,16.9-30,28.6-42.7
		c13.2-14.4,28.5-26.4,46.6-34.4c2.7-1.2,5.5-2.4,8.3-3.6c5.1-2.1,10.2-4.4,15.8-4.3c3.4,1.6,1.2,3.4,0.2,5.2
		c-7.6,3.4-15.7,5.3-23.2,9C335.9,48,315.7,67.6,301,93.3c-3.2,5.6-6.8,11.1-10.1,16.7C289.9,111.8,288.7,113.7,286,112.5z"/>
	<path class="st0" d="M168.3,299.5c11.4-20.3,24.4-39.7,36.7-59.5c4.3-6.9,7.3-14.6,13-20.7c1.3-0.6,2.3,0,3.1,1.1
		c1.2,3-1,5-2.3,7.3c-13,22.8-27,45-40.5,67.5c-1.6,2.6-3.9,4.6-6,6.8C170.2,302.3,168.3,302.5,168.3,299.5z"/>
	<path class="st0" d="M220.1,220.5c-0.7-0.4-1.4-0.8-2.1-1.1c4.1-7,8.1-14.1,12.3-21c7.3-11.8,13.8-24.2,21.9-35.6
		c1.4,0.1,2.1,1.1,2.8,2.1c1.4,2.2,0.2,4.1-0.9,5.9c-9.4,15.3-18.6,30.6-28.1,45.8C224.7,218.9,223.4,221,220.1,220.5z"/>
	<path class="st0" d="M168.3,299.5c1.4,1.1,2.8,0.9,4-0.3c3.8-0.3,5.5-2.9,6.9-6c1.3-2.7,2.6-5.7,6.7-4.2c0.7,0.6,1.1,1.4,1.2,2.3
		c0,0.6-0.1,1.1-0.4,1.7c-0.6,0.8-1.2,1.5-1.7,2.3c-2.3,3.9-1.8,5,2.7,5c8.4,0,16.6-1.6,24.8-2.7c3-0.4,6-0.8,9-1.6
		c3.9-1,7.3-2.6,10.7-4.6c7.3,0.9,13.7-2.6,20.3-4.7c2-0.6,3.8-1.6,5.9-0.6c0.5,0.4,0.8,0.8,0.9,1.4c-1.6,0.9-3.2,1.8-4.8,2.6
		c-26.9,10.4-55.1,13.5-83.6,14.4c-1.5,0-3.2,0.5-4.2-1.1C165.9,301.6,167,300.5,168.3,299.5z"/>
	<path class="st0" d="M253.8,165.4c-0.5-0.9-1-1.8-1.5-2.7c7.3-12.4,14.6-24.9,22-37.3c0.7-1.2,2.2-2.1,3.3-3.1
		c0.1,0.6,0.2,1.3,0.3,1.9c2.3,1.8,1.9,4,0.7,6.1c-6.3,11.5-13.6,22.3-20.4,33.5C257.2,165.5,255.7,166.2,253.8,165.4z"/>
	<path class="st1" d="M584.2,335.2c-0.4,1.4-1.5,1.8-2.8,1.9c-0.7,0-1.6-0.3-1.4-1.1c0.4-1.5,1.5-2.3,3.1-2.2
		C583.9,333.7,584.3,334.4,584.2,335.2z"/>
	<path class="st2" d="M1028.6,44.6c-1,2-1.5,4.4-3.5,5.8c-6.1,2.7-8.1,9-10.6,14.1c-4.8,9.9-11.5,18.5-16.6,28.1
		c-0.6,0.5-0.6,1.4-1.2,1.9c-1.7,1.4-1.7,5.4-5.2,4.2c-2.7-1-3.5-3.8-4.2-6.4c-0.5-1.8,0.1-3.8-0.8-6.1c-1.2,4.9,1.5,8.3,3.4,11.7
		c1.5,2.7,1.5,4.9,0,7.4c-3.5,5-6.5,10.2-11.1,14.3c-0.4,0.1-0.7,0.1-1.1,0.2c-1.9,0.3-4.5-0.8-5.4,2c-0.9,2.6,1.5,3.6,2.8,5.1
		c0.6,1.4,0,2.6-0.7,3.7c-4.5,7.1-7.3,15.5-12.7,21.7c-7.3,8.5-13.8,18.3-25.1,22.8c-4.5,1.8-8.5,4.9-12.6,7.6
		c-20,5.1-40.3,6-60.9,6.4c-40.6,0.7-81.3-0.1-121.9,0.5c-13.9,0.2-27.8-1.1-41.2-1.3c40.2,2.3,81,0.9,121.7,1.2
		c27.3,0.2,54.7,0.2,82-2.3c1.8-0.2,3.9-0.8,5.2,1.2c-8.6,2-17.2,3.5-26,3.5c-62.4-0.1-124.7,0-187.1-0.1c-3.5,0-7-0.4-9,3.4
		c-3.2,0.4-4.1,3-5.4,5.3c-4,1.3-6.3,3.9-6.1,8.3c0.1,1-0.2,2.1-0.7,2.7c-4.7,4.9-5.9,12-11.5,16.4c-5.8,4.5-11.8,5.1-17.9,0.2
		c4.4,5.3,4.5,5.5,11.6,3.7c3.7-1,6.5-0.4,9,2.8c4.1,5.2,4.5,5.1,9,0c0.4-0.4,1-0.5,1.6-0.6c42.9-0.3,85.8-0.1,128.6-0.1
		c31.4,0,62.8,0,94.2,0c1.5,0,3.1-0.1,4.6,0.1c4.5,0.4,5.3,1.8,3.6,5.9c-3.2,7.7-8.4,14.2-13.2,20.8c-9,12.8-21.4,21.9-35.9,27.5
		c-10.1,3.9-20.9,6.3-32,6.8c-14.9,0.7-29.8,0.2-40.6,0.5c13.1-0.2,30.3,0.6,47.4-1.1c5.3-0.5,10.5-1.7,15.6-3.2
		c2.8-0.8,5.7-2.8,8.6-0.2c-5.9,3.9-12.7,5.4-19.4,6.6c-10,1.7-20.1,2.5-30.3,2.5c-86.2-0.1-172.4,0-258.6,0
		c-3.5,0-6.9-0.1-10.3-0.9c-0.2-0.1-0.5-0.3-0.7-0.4c-3.2-2.9-3.9-5.2-1-9.6c4.4-6.7,8.3-13.8,12.1-21c2.4-1.7,4.4-3.5,5-6.6
		c0.5-2.5,2.2-4.3,3.7-6.2c3-3.9,6.9-7.2,8-12.2c0.4-1.7,1.8-2.3,3.1-3c0.8-0.4,2.1-0.6,2.1-1.7c1-10.5,9-17.2,14-25.3
		c2.9-4.7,4.5-10.2,8.3-14.3c1.6-2.7,3.6-5.1,5.8-7.4c2.6-2.6,5-5.3,7.7-7.7c2.2-2,4.4-4.3,4.3-7.2c-0.1-7.9,5.3-12.2,9.9-17.3
		c7.8-8.6,17-15.5,27.6-19.9c13.4-5.7,27.5-9.1,42.4-7.8c7.7,0.6,15.4,0.4,23.1,0.1c14-0.6,27.9,1.6,41.8,1.3
		c24.2-0.6,48.5-0.4,72.6-1.6c14.9-0.7,29.7,1.9,44.5,0.4c3.7-0.4,5.8-0.9,6.8-5.1c1.3-5.3,5.3-9.2,9.2-12.9c1-1.1,2.9-1.8,2.7-3.4
		c-0.4-5.1,3.3-8,6-11.4c-1.5,1.4-2.5,4.2-5.5,2.3c0.7-3.1,2.7-5.5,4.3-8.1c1.7-2.8,1.1-4.3-2.2-4.4c-1.5-0.1-3.1,0-4.6,0
		c-75.8,0-151.6,0-227.3-0.1c-0.3-2.5,1.6-2.7,3.3-2.9c15.2-1.3,30.3-1.2,45.5-0.6c26.1,1.1,52.3,1.7,78.5,0.7
		c8.8-0.3,17.7,0.3,26.5,0.1c14.9-0.2,29.9-0.4,44.8-1c3.6-0.1,7.2,0.2,10.9,0.9c6.3,1.2,12.7-0.1,16.8-1
		c-5.7,1.3-13.4,0.7-21.3,0.5c-13.4-0.2-26.9-1-40.4,0.5c-5.7,0.6-11.5,0.3-17.2,0.2c-2.6-0.1-5.4-0.8-5.3-4c0.1-3.4,3-3.1,5.7-3.3
		c4.5-0.3,9,0.4,13.4-0.8c-4.9,1.2-9.8,0.4-14.8,0.7c-2.2,0.1-4.6-0.1-5.2,2.1c-1.3,4.9-5.2,5.2-8.8,5.1c-24.3-0.5-48.5,1.4-72.8-1
		c-4.7-0.5-9.4,0.8-14.2,0.1c-2.6-0.4-5.2-0.4-7.5-2c-0.8-0.6-1.8-1.1-2.7-0.9c-7.9,2.5-16.4-0.3-24.2,2.8c-2,0.8-4.2,2-5.6-0.4
		c-1.2-2,0.5-3.7,1.9-4.9c4.5-3.9,6.3-9.7,9.3-14.5c5.4-8.8,12.8-15.7,19.6-23.2c1.3-1.6,3.1-2.6,4.9-3.5c2.6-1.3,3.6-3.2,3.8-5.9
		c3.5-3.2,7.3-5.4,12.3-3.9c1.7,1.2,3.4,1.3,5.6,0.9c10.6-2.2,21.4-2.2,32.2-1.8c8.8,0.3,17.7-0.2,26.5-0.3
		c24.6-0.2,49.2,0.7,73.8,0.4c30.4-0.4,60.9,0.9,91.3,0c17.4-0.5,34.7,0.1,52.1,0c1.6,0,3.1-0.1,4.7-0.3c-8.7,0.1-17.5,0.7-26,0.3
		c-20.8-1-41.6,0.8-62.4,0.1c-13.4-0.4-26.7-0.1-40.1-0.5c-14-0.5-27.9,1.1-41.9,0.5c-21.3-1-42.7-0.6-64-0.4
		c-13.7,0.2-27.6-1.5-41.3,0.9c-1.3,0.2-2.7,0.2-3.7-0.9c-0.5-2.7,1.7-3.2,3.5-3.6c4.4-0.9,8.8-1.7,13.3-1.6
		c47.2,1,94.5,0.2,141.7,0.4c37.5,0.1,75.1,0.1,112.6,0c2.9,0,5.7-0.7,8-0.5c-5.5,0.9-11.5,0.6-17.6,0.6
		c-79-0.1-158.1,0.1-237.1-0.1c-5,0-10.1-0.5-15.1,0.1c-3.4-0.5-6.8-1-9.4-3.5c5.7-1.9,11.6-2.4,17.5-2.4c87.9,0,175.7,0,263.6,0.1
		c6.2,0,12.3,0.6,17.2,5c5,4.5,7.6,10,5.3,16.9c-2.3-1.6,0.2-5.2-2.2-6c1.2,2,2,4.7,0,7.5C1027.7,41.7,1027.9,43.2,1028.6,44.6z"/>
	<path class="st0" d="M283.7,273.5c-7,6.4-15.1,10.9-24.1,14c0,0-0.3-0.4-0.3-0.4c-0.7-2,0.7-2.7,1.8-3.2c-2.5,2.2-6,2.9-9.4,3.6
		c-4.3,0.9-8.3,2.5-12,4.8c-1.8,1.1-3.6,0.9-5.5,0.3c-1.1-0.6-2.5-1-3.3-0.3c-4.7,4.5-10.8,4.3-16.6,5.2c-7.4,1.1-14.9,2.2-22.4,2.9
		c-8.4,0.8-9.2-0.5-6.3-8.5l0,0c4.9-8,10.2-15.7,15-23.6c3.3-5.4,6.3-11.1,9.5-16.7c0.8-1.4,1.4-3,2.8-4c0.8-0.4,2.2-0.8,2.2-1.6
		c0-3.7,2.4-5.7,4.5-8.2c2.8-3.4,3.5-8.1,6.2-11.7c1.3-1.6,2.2-3.2,4.1-4.2c7.3-3.6,12.2-9.1,12.4-17.6c0.1-3.1,0.8-5.5,3.5-7.4
		c2.3-1.6,3.5-4.1,3.3-7c-0.4-3.8,1.7-5.9,4.7-7.8c3.3-2.1,6-4.7,6.1-9.1c0-0.7-0.4-0.2,0.1-0.5c4.6-2.9,4.3-9.2,8.7-12.3
		c5.9-2.4,6.2-7.5,6-12.7c1.1-2.2,3-3.8,3.9-6.1c1.2-3.1,3.7-4.1,6.8-3.1c0.6,0.5-0.1-0.2,0.5,0.3c0.3,0.2,0.5,0.5,0.7,0.8
		c-0.1-0.3-0.3-0.5-0.4-0.7c-0.7-0.9-0.8-1.9-0.6-2.9c2.5-2.3-0.9-5.5,1.1-7.9c2.7-1.6,5.6-0.9,8.4-0.9c88.9,0,177.7,0,266.6,0
		c5.4,0,10.7,0.3,16-0.7c2.6-0.5,4.6,0.4,6,2.4c1.6,2.4,0.2,4.2-1.3,6.1c-6.9,8.5-11.6,18.5-18.4,27.1c-4.1,5.1-8.3,9.7-13.8,13
		c-3.4,2.1-6.6,4.4-9.6,7.1c-0.5,0.4-1.1,0.8-1.8,1c-0.6,0.1-1.2,0.1-1.7,0.3c-13.7,7.3-28.7,5.7-43.3,5.7
		c-44.8,0.2-89.6,0.1-134.3,0.2c-6.2,0-13.8-1.5-18.4,5.5c-3.4,4.5-9,7.6-9,14.3c0,1.2-0.8,2.1-1.8,2.8c-5.8,3.8-7.8,10.4-11.1,16
		c-1.4,2.3-2.9,4-5.7,3.9c-5.7,3-8.7,8.8-7.7,15.1c0.3,2-1,3-1.8,4.5c-1.4,2.5-5.2,3.7-4.4,7.5c-4.5,6-9.8,11.1-16.2,15
		c-0.8-1-0.8-2.1,0.1-3.3c-1.1,1.1-2.2,1.8-3,2.9C281.8,272.3,282.7,272.3,283.7,273.5z"/>
	<path class="st0" d="M400.9,102.1c-0.4,0-0.8,0-1.3,0c0.3-3.1,0.3-3.1,2.4-6.1c-0.9,2.1-3.2,3.7-4.3,6.2c-1.1,2.4-3.3,4.1-4.4,6.6
		c-2.9,6.4-8.9,5.4-14.4,5.4c2.3-0.1,4.7,0.2,7-0.2c1-0.2,2,0.1,2.2,1.2c0.2,1.2-0.8,1.6-1.8,1.7c-0.9,0.2-1.9,0.1-2.9,0.1
		c-21.5,0-43.1,0-64.6,0.3c-6.2,0.1-12.4-0.5-18.6-0.4c-4.1,0.1-5.6-2.4-3.7-5.5c2.5-4.1,1.7-11,8.9-11.5c0.6,0,0.3,0,0.2-0.5
		c-0.8-6.9,4.1-11.3,7.2-16.6c0.7-1.2,1.5-2.2,2.9-2.5c0.4-0.1,1.1,0,0.8-0.9c0.6-3.6,2.8-5.8,5.6-8.2c4.9-4.2,8.6-9.6,13.7-13.7
		c5.5-4.4,10.6-9.4,18.1-11.8c-2.4,1-4.2,1.8-5.4-0.7c0-0.6-0.1-1.3,0.3-1.7c7-6.3,15.4-9.9,24.2-12.4c1.1-0.3,2.2,0.6,3,1.5
		c1,0.4,0.4,2.7,2.8,1.7c10.5-4.5,21.6-6.7,33.1-6.7c75.4-0.5,150.9-0.1,226.3-0.2c0.7,0,1.4,0.1,2.1,0.1c6.8,0.1,8.1,1.9,5,7.9
		c-2.9,5.8-6.9,10.9-10.2,16.5c-1,1.6-2.7,3.1-1.8,5.4c-2.8,5.9-6.2,11.5-10.5,16.4c-3.5,2.3-5.9,5.7-8.5,8.9
		c-2.2,2.6-4.8,3.6-8.3,3.5c-23.2-0.2-46.4-0.1-69.6-0.1c-38.7,0-77.4,0-116.1,0c60.9,0,121.8,0,182.7,0c4.1,0,8.5,1,11.4-3.4
		c0.5-0.7,1.8-0.6,2.7,0c-0.9,4.8-3.9,6.2-8.6,6.2c-62.2-0.1-124.4,0.1-186.6-0.3c-8.4,0-14.4,1.5-17.9,9.5
		C403.2,99.5,401.9,100.7,400.9,102.1z"/>
	<path class="st0" d="M633.3,57.3c-1.1,0.7-2.2,1.5-3.5,2.4c-1.5-4-3.5-7.9,3.3-8.5c0.4,0,1.2-0.7,1.2-1.1c0.3-7,7.3-10.4,9.1-16.7
		c1.1-3.8-0.1-3.8-2.8-3.8c-1.5,0-3.1,0-4.6,0c-74.7,0-149.4,0-224-0.1c-10,0-19.4,3-29.1,4.9c-1.5,0.3-1.6,0.8-1.2,2.4
		c0.9,3.6-2.2,6.3-5.7,5.3c-3.9-1.2,1-2.4-0.1-3.8c-2.1-1.2-4.7,1.6-7.3-0.7c2.4-1.6,4.6-3.2,6.9-4.7c-0.2-3.2,1.9-3.7,4.4-4.5
		c13.2-4.2,26.6-5.7,40.4-5.7c72.4-0.1,144.9,0.3,217.3-0.1c0.6,0,1.3,0.2,2.5,0.1c-76.8,0-153,0-229.2,0.1
		c-6.9,0-13.7,1.1-20.5,2.8c-2.5,0.6-5,1-6.9-1.5c0.6-1,2.2-1.2,2-2.8c3.1-2.6,7.5-0.7,10.7-3.1c10.5-1.5,21-1.4,31.5-1.4
		c72.6,0,145.2,0,217.8,0c4.1,0,10.3-1.6,11.9,1.3c2.1,3.7-3.1,7.5-5.4,11C645.9,38.5,640.3,48.4,633.3,57.3z"/>
	<path class="st2" d="M891.7,114.7c-4,4.2-10,7.1-9.1,14.7c0.3,2.4-3.2,3.3-5.4,3.4c-10.1,0.4-20.1,1.5-30.2-0.3
		c-3.4-0.6-6.9-0.8-10.3-0.4c-15,2.2-30.1,0.3-45.1,1.2c-13.2,0.7-26.3,3.2-39.4,1.9c-20.4-2-40.8-1.9-61.2-2.3
		c-9.4-0.2-18.7,0.5-27.7,3.5c-1.5,0.5-2.9,0.8-3.3,2.6c-0.4,1.6-1.7,2.2-3.1,1.9c-8.8-2.1-15,4.2-21,8.1c-4.6,3-11.8,5.8-11.8,13.6
		c-4,0-5.7,3.3-8,5.7c-1.1,1.2-2,2.4-1.3,4.1c2.1,5.3-1.2,9.2-4.4,12.1c-3.3,3.1-6.1,6.9-10.7,8.4c-1.8,0-3-0.9-3.7-2.6
		c1.5-7,6.3-12.2,9.9-18c12.6-20.2,30.1-34.3,53-41.5c5.9-1.9,11.9-3.8,18.2-4.1c6.1-0.3,12.2,0,18.2,1.1c9.5,1.8,19.1-0.1,28.6-0.1
		c43.7,0.2,87.3,0,131,0.1c4.4,0,8.8-0.3,13.2-0.4c6.7-0.2,10-5.6,14.4-9.2c1.1-2,2.3-3.9,3.4-5.9c1.7-1,1.3-5,4.6-3.4
		C893,110.3,893.2,112.4,891.7,114.7z"/>
	<path class="st2" d="M882.5,118.3c-1.3,2.9-3.4,5.3-3.8,8.8c-0.3,3-3.3,3.3-5.9,3.2c-51.9-1.4-103.7-0.8-155.6-0.2
		c-14,0.2-27.8-1.5-41.8-0.5c0.3-3,2.7-2.5,4.7-2.7c5-0.6,10.1-0.7,15.2-0.7c51.7,0,103.4,0.2,155-0.1c4.9,0,9.9-1.4,13.2-0.1
		c-22.6,0.3-46.9,0.2-71.1,0.2c-33.7,0.1-67.4,0.1-101.1,0c-20.8-0.1-39.6,5.2-57,16.2c-2.6,0.4-5.1,0.8-7.2-1.4
		c9.2-8.5,20.6-13.2,32.3-16.8c12.3-3.8,25.1-4.8,38-4.3c5,0.2,9.9-0.5,14.9-0.5c52.1-0.1,104.2,0,156.3-0.1
		C873.2,119.4,878.1,121.7,882.5,118.3z"/>
	<path class="st2" d="M702,42.3c-5.1,4.3-7.4,11.1-13.3,14.7c-1,0.6-0.7,1.6-0.4,2.6c1,2.7,0.3,3.7-2.8,3.7c-3.6,0-5.5,3.7-5.8,6.1
		c-0.8,5.6-3.9,8.8-8,11.9c-0.7,0.5-1.2,1.4-2.7,3.2c4.2-1.4,5.9-4.9,9.2-4.7c3.2,0.2,6.4,0.8,9.7,1.1c1.1,0.1,2.3-0.3,3.3-0.7
		c5-2,9.9-5.2,14.3,1.6c0.9,1.3,4.4,1.7,6.5,1.4c8.5-1.4,16.7,1.4,25,1.6c19.3,0.3,38.6,0,57.9-0.2c2.9,0,5.9-0.7,6.3-4.5
		c0.2-2.2,1.4-3.1,3.3-3.1c9.1,0,18.2,0,27.4,0.7c-5.6,1.6-11.3,2.6-17.1,2.6c-1.5,0-3.1-0.1-4.6,0.1c-1.3,0.1-3.1-0.2-3.2,1.6
		c-0.1,1.5,1.6,2.2,2.9,2.4c4.9,1,10.1,1.3,14.8,0.2c13.2-3.1,26.7,0.1,39.9-1.9c1.8-0.3,4,0,5.6,0.7c5.3,2.4,10.4,1.5,15.6-0.2
		c4.2-1.4,8.3-2.9,12.8-2.7c1.3,0.1,3,0.2,3.2,1.8c0.3,2.2-1.8,1.2-2.8,1.7c-12.6,6.3-26.1,3-39.1,3c-63,0.4-126,0.2-189,0.2
		c-2.8,0-5.8-0.4-8.4,1.2c-2.6,0-6.7,1.2-7.5-0.9c-1.5-3.6,2.7-6.2,4.2-9.4c1.3,0.1,2.4,0.7,3.4,1.5c3.7,0.8,3.7-2.6,5-4.5
		c7-9.5,11.8-20.6,20.2-28.9c3.2-3.2,5.7-8.4,11.7-7.4C701.3,39.5,701.2,41.1,702,42.3z"/>
	<path class="st2" d="M675.6,235.4c-0.1,2.4-0.5,5-3.5,4.9c-2.8-0.1-6.2,0.7-7.4-3.6c-1.1-3.9-3.4-5-7.3-2.6
		c-2.6,1.6-6.2,4.5-8.9,2.3c-3.7-3.1-6.3-7.5-9.1-11.6c-0.9-1.3,0-3.1,1.6-3.8c2.2-0.9,3.8,0.1,4.8,2c1.8,3.6,4.7,4.7,8.5,5.7
		c5.7,1.5,8.5-1.7,10.2-5.4c1.7-3.6,3.8-6.5,6.3-9.4c2.8-3.1,2.6-7,2.4-10.9c-0.1-2-1.5-4.3,0.9-5.8c2.4-1.5,3.8,1,5.6,1.7
		c0.5,0.2,1.1,0.4,1.6,0.6c0.8-0.7,1.5-0.7,2.3,0c-3.6,6.3-7.1,12.7-10.8,18.9c-2.3,3.8-1.2,5.2,2.9,5.2c2.3,0,4.6,0,6.9,0
		c75.1,0,150.2,0,225.3,0c0.4,0,0.8-0.1,1.1,0c3.1,0.5,7.6-1.6,9,1.5c1.3,3.1-2.5,5.9-4.5,8.7c-0.8-0.5-1.6-1.1-2.3-1.8
		c-0.5-0.5-1-0.9-1.5-1.4c-2.3-2.4-5.4-1.5-7.9-1.5c-74.7,0.6-149.4-0.1-224.1,0.2c-2,0-4.1-0.3-5.9,0.8c-0.3,0.6-0.3,1.2,0,1.8
		C672.6,233.9,675.1,233.5,675.6,235.4z"/>
	<path class="st2" d="M675.6,235.4c-2,0.1-4,0.3-6,0.3c-0.7,0-1.8,0.1-1.6-0.8c0.2-0.7,1.2-1.2,1.9-1.8c2.4-2.8,5.7-1.7,8.6-1.7
		c68.5-0.1,136.9-0.1,205.4,0.1c7.3,0,14.3-2.2,21.6-1.9c2.9,0.1,5.7,0.2,8,2.4c0,0.7,0,1.4,0,2.1c-7.3,11.6-13.1,24.2-22.7,34.2
		c-9.5,9.9-20.5,17.6-33.4,22.4c-3.1,0.2-6,1.2-8.9,2.2c-10.6,3.6-21.7,4-32.8,3.8c-12.6-0.2-25.3-0.2-37.9-0.4
		c-2,0-4.1,0.4-6.5-0.8c2.1-1.9,4.3-1.4,6.2-1.4c19.9,0.3,39.8,0.2,59.6-2.5c14.2-1.9,26.9-7.5,38.7-16
		c13.2-9.6,21.6-22.7,29.4-36.4c2.1-3.6,0.1-3.8-2.6-3.8c-0.8,0-1.5,0-2.3,0C825.3,235.4,750.5,235.4,675.6,235.4z"/>
	<path class="st0" d="M539.9,181.4c-0.4-2.1-0.9-3.1,2.3-4.5c7-3.1,14.1-6.8,17.7-14.6c0.7-1.5,1.8-3.1,3.1-4.1
		c2.7-1.9,2.3-4-0.3-7.5c6.9,3.6,8.3-0.4,9.2-4.5c0.7-3.3,1.6-5.3,5.2-6.6c3.2-1.2,4.5-5.2,5.7-8.2c0.9-2.4-1.6-3.4-4-3.4
		c-60.9,0.2-121.9,0.3-182.8,0.4c-33.5,0.1-67,0-100.6,0c-2.8,0-5.8-0.4-8.4,1.1c-0.5,2.1-1.6,1.9-2.9,0.8c-0.6-1-0.7-2-0.4-3.2
		c1.1-2.2,3-2.8,5.3-2.8c1.7,0,3.4,0,5.2,0c95.4,0,190.7,0,286.1,0c2.3,0,4.6-0.1,6.9,0.3c0.4,0.1,0.7,0.2,1.1,0.3
		c3,1.6,0.7,2.9-0.2,4.4c-3.8,5.8-9,10.8-11.2,17.6c-7.4,11.2-14,23-26.2,29.9C546.9,178.4,544.5,182.4,539.9,181.4z"/>
	<path class="st2" d="M909.1,188.3c-10-0.9-19.7,2.3-29.7,2.3c-59-0.1-117.9-0.1-176.9-0.1c-3.8,0-7.6-0.4-11.5-0.6
		c-1.3-0.1-3,0.2-3-1.7c0-1.8,1.6-2,3-1.9c9.3,0.3,18.7-1.6,27.9,1.4c2.5,0.8,5.3,0.5,8,0.5c40.8,0,81.6,0.3,122.3-0.1
		c17.6-0.1,35.2-0.5,52.6-2.7c7.6-1,15.6-3.1,23.2-5.2c3.2-0.3,5.7-2,8.2-3.7c1.8-1.2,3.4-1.9,4.9,0.3
		C929.5,183.3,919.5,186.5,909.1,188.3z"/>
	<path class="st0" d="M617,82.5c-3.6,4.2-8.2,4.7-13.4,4.7c-62.4-0.1-124.8-0.1-187.3-0.1c-2.3,0-4.8,0.6-7.5-1.1
		c2.8-1.7,5.3-1.1,7.7-1.1c61.3,0,122.5,0,183.8,0c9.7,0,16.9-5.1,20.7-14.6c0.7-1.7,0.4-5.6,3-4.5c3.1,1.2-0.1,3.8-0.6,5.7
		c-0.2,0.7-0.4,1.5-0.6,2.2C622.1,77.4,618.8,79.4,617,82.5z"/>
	<path class="st2" d="M938.1,176.9c-2.6-0.2-4.6,1.3-6.8,2.4c-2,1-3.9,2.4-6.3,0.9c6.1-5.3,14.3-7.1,20.4-12.5
		c3.7-3.3,8.8-6,5.6-12.5c-0.4-0.9-0.2-2,0.7-2.6c1.3-0.9,2-0.1,2.5,1.2c1.1,2.7,2.3,0.8,3.5,0.1c3.2-2,5.4-6,6-8.7
		c1.7-7.4,7.9-11.6,10.8-17.9c-3.4-4.8,0.4-6.9,3.4-9.2c2-5.7,8.4-8.1,10.4-13.8c1.3-0.8,2.6-1.2,3.9,0.1
		c-9.5,16.3-18.7,32.8-28.8,48.8C957.1,163.1,948.2,170.7,938.1,176.9z"/>
	<path class="st2" d="M529.4,282.4c14.5-22.9,29-45.9,43.5-68.8c1.1-1.8,2-3.7,3-5.5c3.1-1.8,4.4-0.3,4.8,2.7
		c-4.4,9.2-10.6,17.2-15.8,25.9c-9.6,15.9-20.2,31.1-29.8,47c-1.1,1.8-2.2,3.5-4.6,3.7C526.8,286.4,528.6,284.3,529.4,282.4z"/>
	<path class="st0" d="M539.9,181.4c3.5-1.5,7.1-3,10.6-4.5c-11.4,9.5-24.4,14.8-39.3,14.9c-39.2,0.2-78.4,0.1-117.6,0.2
		c-11.5,0-22.9,0.2-34.4-0.1c-7.8-0.2-15.3-0.5-19.4,7.9c-0.5-0.6-0.8-1.2-0.8-2c2.4-6,5.8-8.6,13.2-8.7c45-0.6,90.1,0,135.1-0.2
		c12.5-0.1,24.9,0,37.3-1.7c3-0.4,5.7-1.5,8-2.9C535,182.8,537.4,182.3,539.9,181.4L539.9,181.4z"/>
	<path class="st2" d="M660.6,81.4c-0.4-1.1-0.8-2.2-1.2-3.3c9-12.8,15.3-27.4,26.9-38.4c7.5-7.1,15.9-12.4,25.6-15.9
		c2.3-0.6,4.7-1.2,4.2,2.6c-3.9,4.6-9.8,5.8-14.6,8.8C691,41.9,683,50.7,676.9,61.3c-3.3,5.7-7.3,10.8-10.6,16.5
		C665.1,80,663.9,82.4,660.6,81.4z"/>
	<path class="st0" d="M339.8,198.6c0,0.4,0,0.8,0,1.2c-2.4,2.8-2.7,6.8-5.8,9.2c-4.3,6.3-9,12.2-12.5,19c-1.1,1.3-2.3,2.6-3.4,3.9
		c-2.7,4.1-5.2,8.3-7.8,12.5c-1,1.6-2.4,2.5-4.3,1.5c-2.3-1.3-1.8-3.4-0.8-4.8c3-4,5-8.5,8.1-12.5c1.4-0.4,5.2,2.2,2.9-2.6
		c-1.1-2.3-1.4-5-1-7.7c3.3-0.3,2.8,3.6,5.7,4.2c-0.5-4.3,1.7-6.6,4.9-9.1c3-2.3,5.9-5.7,3.5-10.8c-0.9-1.9-1.6-6,3.6-4.1
		c2.2,0.8,3-0.5,2.6-2.8c-0.7-3.7,0.7-3.8,3.1-1.6C340.2,195.3,338.4,197.3,339.8,198.6z"/>
	<path class="st2" d="M996.3,90.6c8-10.7,14.3-22.4,20.1-34.4c1.4-2.8,4-4.5,5-7.5c0.4-1.2,1.4-2.7,2.9-2.2c2.2,0.7,0.7,2.6,0.8,3.9
		c-9.2,15.9-18,32.1-28.7,47.1C992.4,95.2,995.1,92.9,996.3,90.6z"/>
	<path class="st2" d="M627.1,141.1c1.6,0.8,3.4-3.5,4.8,0.2c0.6,5-4.1,6.4-6.6,8.4c-11,8.6-17.7,20.3-25.1,31.6
		c-1.9,2.9-2.6,7.6-7.9,6.6c-1.1-0.8-1.6-1.8-0.7-3.1C601.3,168.5,610.8,152,627.1,141.1z"/>
	<path class="st0" d="M313.4,228.5c0.7,4.3-2.3,7-4.3,10.2c-1,1.6-4.1,4-1.5,5.6c2,1.3,3-2.2,4.2-3.7c2.1-3,3.3-6.5,6.4-8.7
		c-4.2,10.2-10.8,18.7-18.3,26.6c-2.1-0.9-4.1-2-4.7-4.5c7.5-2.1,8.3-3.3,6.8-10.4c-0.1-0.7-0.2-1.7,0.2-2.1
		c3.6-3.5,5.4-8.2,8.2-12.2C311.1,228.2,312.2,228.2,313.4,228.5z"/>
	<path class="st2" d="M996.3,90.6c-0.5,2.3-1.7,4.6,0,6.9c-1.6,2.2-1.9,5.1-4.2,6.9c-1.3,0-2.6-0.1-3.9-0.1c1.2-3.6,0.6-7.3-2.3-9.5
		c-5-3.8-3-8.5-2.8-13c0.1-1.6,1-3.6,3-3.7c2.3-0.1,2.6,2,2.9,3.6c0.5,3.2,1.4,6.3,0.8,9.7c-0.4,1.9-0.4,4.4,1.7,5
		c2.9,0.8,1.5-2.3,2.4-3.4C994.7,92.1,995.6,91.4,996.3,90.6z"/>
	<path class="st2" d="M891.7,114.7c-0.9-3.4-2.3-5.4-5.7-2.3c0.9-4.6,4.6-7.6,6.8-11.5c2.5-2.6,4.9-5.2,7.4-7.8
		c0.8-0.8,1.5-2.1,2.8-1.2c1.4,0.9,0.9,2.3,0.3,3.6c-0.7,1.3-1.5,2.7-2.4,3.9c-2.5,3.4-6.2,6.1-5.6,11.3
		C895.5,112.6,893.5,113.8,891.7,114.7z"/>
	<path class="st2" d="M529.4,282.4c0,1.4-0.5,2.9,1.3,3.6c1.4,1.2,1.3,2.7,0.4,4.1c-0.9,1.4-0.7,2.5,0.7,3.5c2.6,1.2,5.7,1.8,6.9,5
		c0,0,0.1,0.3,0.1,0.3c-5.2,1.7-10.5,0.8-15.8,0.9c-3.1,0.1-3.7-1.7-2.3-4.1C523.4,291.1,525.6,286.2,529.4,282.4z"/>
	<path class="st2" d="M591.6,184.7c0.4,0.8,0.9,1.6,1.3,2.4c1.6,1.4,1.6,3.1,0.6,4.6c-3.5,5.7-6.8,11.5-10.8,16.9
		c-1,1.4-2.1,2-3.8,1.5c-0.3-1.7-1.8-1.7-3-2.1C580.2,199.6,586.4,192.5,591.6,184.7z"/>
	<path class="st2" d="M1028.6,44.6c-1.9-0.3-4-1.3-2.5-3.2c4.2-5.5,0.2-9.7-1.6-14.2c-0.4-1-1.4-1.9,0-4.1c4.6,4.5,6.2,9.8,6.3,15.7
		C1030.1,40.7,1029.3,42.7,1028.6,44.6z"/>
	<path class="st2" d="M714.6,26c0.3-2.2-1.4-2-2.7-2.2c4.9-2.1,9.8-4.1,15.2-4.5c3.1,0.3,6.4-0.6,9.3,1.3c-0.3,1.9-2,2.8-3.4,3
		c-5.2,0.6-10,2.7-15.1,3.6C716.5,27.3,715.5,27,714.6,26z"/>
	<path class="st2" d="M683.6,199.8c-0.8,0-1.5,0-2.3,0c-0.5-3.9,5.4-6.5,1.7-11.2c2.9,1.7,3.8,3.9,4.1,6.5
		C685.9,196.7,684.7,198.2,683.6,199.8z"/>
	<path class="st0" d="M321.5,228c2.2-7.6,7.1-13.5,12.5-19C330.7,215.8,326.2,222,321.5,228z"/>
	<path class="st1" d="M405.4,111.5c-1.1-0.1-1.7-0.7-1.8-1.8c-0.1-1,0.4-2,1.4-2.1c1.4-0.2,2.1,0.7,2.1,2
		C407.1,110.7,406.5,111.3,405.4,111.5z"/>
	<path class="st3" d="M253.8,165.4c7.7-12.4,15.5-24.9,23.1-37.4c0.7-1.1,0.7-2.5,1-3.8c5.2-5.3,11.9-4.1,18.3-4.1
		c91.9,0,183.8,0.1,275.8,0.2c4.8,0,9.6-0.1,14.4-0.1c1.5,0,3.3-0.4,3.8,1.6c0.5,1.7-1.2,2.2-2,3.2c0,0,0,0,0,0
		c-2.2,1.2-4.5,0.6-6.8,0.6c-96.4,0-192.8,0-289.2,0.1c-2.4,0-5-0.8-7.2,1c-2.7,11.4-10.8,19.7-16.4,29.4c-3.7,6.4-7.1,13-11.1,19.2
		c-10.4,16-19,33.1-30.2,48.6c-4.9,6.7-9,14-12.5,21.5c-5.1,6-8.5,13-12.6,19.7c-5,8.3-9.1,17.4-16.7,23.9c-2.5,2.1-3.6,5.2-5.3,7.9
		c-2,3.3-4.4,4.4-7.9,2.3c15.6-24.9,31-49.9,45.7-75.4c0.7-1.1,1.4-2.3,2.1-3.4C232.3,202.7,243.1,184.1,253.8,165.4z"/>
	<path class="st4" d="M383.6,24.1c19.4-4.5,39.2-3.5,58.9-3.5c67.6,0,135.3,0,202.9,0c0.8,0,1.5,0,2.3,0c1.5,0.1,3.5-0.3,3.7,1.7
		c0.2,2.2-1.8,2.8-3.6,2.8c-3.8,0.1-7.7,0-11.5,0c-74.7,0-149.5,0-224.2,0c-12.7,0-25.1,2.3-36.8,7.6c-9.8,2.2-18.3,7.3-26.5,12.8
		c-0.6,3-3.2,4.3-5.3,5.9c-7.2,5.5-14.4,11-19.5,18.7c-7.2,5.3-11.5,13-16.1,20.4c-1.3,2.1-2.3,4.4-3.3,6.7
		c-3.9,3.5-5.2,8.6-7.8,12.9c-1.6,2.7-2.6,6.1-6.5,6.5c-3.6,0.8-6.6,1-4.3-4.2c4.5-7.3,9.1-14.5,13.5-21.9
		c19.3-31.9,45.9-54.6,82.1-65.5C382.2,24.9,382.9,24.5,383.6,24.1z"/>
	<path class="st0" d="M290.3,116.7c3.7-7.1,7.7-14,12.6-20.4c3.3-3.2,4.1-8.1,7.6-11.2c1.3-0.7,2.1-2.7,4.1-1.4
		c0.7,2.2,4.4,5.4-2.2,4.7c-2.1-0.2-5.6,9.3-4.4,11.8c1.9,3.9,0.4,6.1-3,7.7c-0.3-0.4-0.7-0.6-0.8-0.9c-0.2-1.7,3.3-3.6,0.6-4.8
		c-2.4-1-2.6,2.2-3.3,3.7c-4.3,9.9-4.2,9.9,6.5,9.9c23.7,0,47.4,0,71.2,0c2.1,0,4.1,0,6.2,0c0-0.4,0-0.7,0-1.1c-4.4,0-8.8,0-13.1,0
		c0-0.4,0-0.9,0-1.3c3.4,0,6.7,0.2,10.1,0c6.8-0.5,8.7-2.5,8.9-9.4c0-0.7,0.3-1.9,0.6-1.9c7.4-1.2,9.3-8,13.1-12.8
		c0.2-0.3,0.7-0.3,2.2-0.9c-1.8,5.6-5.7,9.1-7.6,13.6c-2.5,5.5-8.5,8.9-9.1,15.5c-0.2,2-2,1.3-3.2,1.2c-19.3-0.9-38.6-1.3-57.9,0.3
		c-12.6,1-25.2-2.4-37.8-0.4C290.4,118.9,290.2,117.7,290.3,116.7z"/>
	<path class="st0" d="M185.5,289c8.5-14.3,17-28.5,25.6-42.7c0.5-0.8,1.4-1.3,2-1.9c2.4,1.1,2.9,2.7,1.3,4.8
		c-0.9,4.7-3.5,9.9-6,12.6c-2.7,3-0.3,9.5-6.8,9.6c-2,0-1.6,2.8-1.4,4.9c0.2,1.7,0.6,5-3.4,2.8c-1.6-0.9-1.8,1.5-2.6,2.4
		c-3,3.4-4.2,8.2-8.7,10.3C185.7,290.8,185.6,289.9,185.5,289z"/>
	<path class="st0" d="M185.7,291.7c0.5,7.2,1.1,7.9,8.5,6.6c8.9-1.6,17.8-2.2,26.7-3.3c2.5-0.3,4.8-1.2,6.8-2.7
		c2.3-1.7,4.8-2.3,7.5-0.7c-0.5,1-1.4,1.1-2.3,1.2c-2.3,3.3-5.9,3.6-9.4,4.3c-14.3,3-28.8,5-44.3,4.8
		C181.5,298.1,182.6,294.4,185.7,291.7z"/>
	<path class="st0" d="M232.9,292.9c0.8-0.4,1.6-0.8,2.3-1.2c3.5,1.2,4.3-2.7,6.7-3.8c7-3.2,15.8-0.9,21.5-7.6
		c1.2-1.4,3.2-0.9,4.6,0.7c-1.9,3.6-6.5,3.2-8.7,6.1c-6.9,0.7-12.8,4.4-19.3,6.2C237.4,293.9,235.2,294.3,232.9,292.9z"/>
	<path class="st5" d="M714.6,26c7.3-1.8,14.6-3.6,21.9-5.5c90.2,0,180.4,0,270.5,0c3.2,0,6.5-0.3,9.7,0.9c1.1,0.4,3,0.5,2.5,2.4
		c-0.4,1.3-1.9,1.2-3,1.1c-6.5-0.9-13,0-19.5,0C915.4,24.9,834,25,752.6,24.8c-8.6,0-17.2-0.1-25.5,2.4c-1.7,3.9-5,2.7-8,2.3
		c-3.7,1-7.4,2.1-10.5,4.6c-2,3.6-4.9,5.6-9.2,5.6c-9.2,5.4-15.2,13.8-20.7,22.6c-4.2,6.6-8.3,13.3-12.7,19.8
		c-2.1,3.2-4.3,4.3-5.5-0.7c6.5-7.3,11.2-15.9,16.2-24.2C685.9,42.1,698.9,32.5,714.6,26z"/>
	<path class="st2" d="M719.2,29.6c2.5-1.4,5.2-1.8,8-2.3c45-2.2,89.9-0.8,134.9-1c50-0.2,100-0.1,149.9,0c2.3,0,6.8-1.5,6.7,1.7
		c-0.1,2.8-4.4,1.1-7,1.3c-8.2,0.5-16.3-1.4-24.5,0.1c-6.2,1.1-12.2-0.7-18.3-0.7c-9.9,0.1-19.9,0.9-29.8,1
		c-15.3,0.2-30.7,0.8-45.9-0.2c-16.1-1-32.1,0.4-48.1,0.2c-11.1-0.2-22.2-1.5-33.2-0.9c-16.8,1-33.6-1.7-50.4,0.7
		c-4.8,0.7-9.9-0.7-14.8-0.9c-6.7-0.2-13.4-0.3-19.7,2.7C724.3,32.5,721.3,32.3,719.2,29.6z"/>
	<path class="st2" d="M595.1,199.8c-6.9,10.9-13.7,21.8-20.6,32.7c-0.7,1.1-0.8,2.2,0.1,3.1c3.9,4.1-0.4,7-2,9.4
		c-1.9,2.7-2-2.2-4.5-2.1c0.7,4.7-2,7.5-5.5,10.4c-3.4,2.8-6.3,6.5-7.2,11.3c-0.4,2.3-2.4,3.8-5,4.1c-1.3-0.3-2.2-1.2-2.6-2.4
		c0.2-5,3.7-8.3,6.1-12.1c11.2-17.2,21.9-34.9,33.3-52c1.3-2,2.1-4.9,5.5-4.8C593.8,197.7,594.7,198.5,595.1,199.8z"/>
	<ellipse class="st2" cx="876.2" cy="18.7" rx="189" ry="0.4"/>
	<path class="st2" d="M549.1,266.5c0.4,0.8,0.7,1.5,1.1,2.3c-0.1,3.8-2.9,6.1-4.8,8.9c-3.3,4.8-3.2,11.2-7.9,15.3
		c-0.8,0.7,0.3,1.6,1.3,1.9c1.4,0.4,2.9-1.1,4.3,0.4c-0.9,1.9-3.2,1.9-4.4,3.3c-2-2.7-6.8,1-8.1-3.5c-1.5-2.2-0.2-4.2,0.9-5.8
		c4.4-6.3,7.9-13.1,12.2-19.4C545,268,546.2,265.8,549.1,266.5z"/>
	<path class="st2" d="M977.9,118.1c0,3.5-3,5.9-3.4,9.2c-2,0.3-4.5,1.4-5.2-1.5c-0.8-3.1-1.4-6.5,0.7-9.2c1.9-2.5,4-0.5,6,0.5
		C976.6,117.4,977.3,117.8,977.9,118.1z"/>
	<path class="st2" d="M699.5,39.7c3-2,5.6-4.6,9.2-5.6c1.1,0.2,2.5-0.2,3,1c0.4,1.1-0.8,1.5-1.6,2c-2.7,1.8-5.9,2.7-8.1,5.1
		C700.8,41.8,700,40.9,699.5,39.7z"/>
	<path class="st2" d="M595.1,199.8c-0.8-0.5-1.6-0.9-2.4-1.4c-1.4-4.7-0.3-6.6,4.8-7.8c1.1,0.4,1.8,1.2,2.2,2.3
		C598.1,195.2,596.6,197.5,595.1,199.8z"/>
	<path class="st0" d="M214.5,249.2c-0.4-1.6-0.9-3.2-1.3-4.8c-0.7-3.2,2-4.8,3.4-7c18.7-30.8,37.6-61.5,56.3-92.2
		c3.4-5.6,6.8-11.3,10.2-16.9c0.6-0.6,1.1-0.6,1.5,0.1c0,0.8,0,1.5,0,2.3c1.6,1.2,3.2,2.4,3.4,4.6c0,1.2,0,2.3,0,3.5
		c0,2-1,1.9-2.3,1.1c-2.2,0.4-4.4,0.7-4.8,3.6c-0.3,2.5-2.1,3.8-4.4,4.4c-1.7,4.9-3.1,10-6.9,13.8c-1.6,2-1.9,4-0.7,6.3
		c0.8,1.4,1.7,3.5,0.1,4.8c-1.8,1.5-3-0.7-4.4-1.5c-0.5-0.3-1-0.3-1.6-0.5c1,5.9-2.2,11.5-8,13.8c-1.7,0.7-3.6,1.1-2.6,3.4
		c1.8,4.5-0.9,8.1-3.6,10c-4.9,3.4-4.2,5.4,1.2,8c-4.3,0-6.1,1.5-5.9,5.3c0.2,2.7-1.6,4.6-3.7,6.1c-2,1.4-3.9,3-5.3,5.2
		c-1,1.6-0.5,6-5,2.5c-1.3-1-3.1,3.6-5,5.4c-1.7,1.6,0.4,2.4,1.7,3.2c1.8,1,2.2,2.8,2.7,4.7c-3,0.7-3.9-2.8-6.4-2.5
		c-1.3,2.6,1.9,3.4,2.1,6c-4.6-0.9-7.8,0-7.6,5.6C217.7,249,216,249.7,214.5,249.2z"/>
	<path class="st0" d="M339.8,198.6c-2.4-1-1.9-2.8-1.1-4.5c1.4-1.3,2.7-2.7,4.1-4c2.2-2.2,4.3-3.6,8-2.7c3.7,0.9,7.9-0.2,11.9-0.2
		c43.1,0,86.2,0.1,129.2-0.1c10.5,0,21-0.7,31.5-1.2c3.4-0.1,6.5-1.2,9-3.3c2.4-2.1,4.8-2,7.4-1.2c-9.3,7.6-20.7,8.9-31.9,9
		c-51.7,0.3-103.3,0.3-155,0C346.3,190.4,341.9,192.1,339.8,198.6z"/>
	<path class="st0" d="M283.7,273.5c-3,0.3-4.9,2.9-8.1,3.7c-0.8-2.3,0.8-4.7-1.1-7.3c4,3.4,6.1,2.7,7.5-1.6c0.7-2.1,2.2-3.6,4.6-3.7
		c0.8,0,2.1,0.5,2.4,1.1c0.7,1.5-1.2,0.9-1.6,1.5c-1.4,2-2.6,4.2-3.8,6.3C283.5,273.5,283.7,273.5,283.7,273.5z"/>
	<path class="st0" d="M269.7,161.8c-1.2-6.3,3.8-9.6,6.9-13.8C276.6,153.8,277.2,159.8,269.7,161.8z"/>
	<path class="st0" d="M285.8,140c0.8-0.4,1.5-0.8,2.3-1.1c1.8,1.3,4.9-0.2,5.8,2.8c0.3,0.8-0.5,1.4-1.3,1.6
		C289.5,143.8,287.4,142.5,285.8,140z"/>
	<path class="st0" d="M288.1,135.4c-1.8-1.1-3-2.5-3.4-4.6c0.8-0.4,1.5-0.8,2.3-1.1C287.9,131.4,294,132.2,288.1,135.4z"/>
	<path class="st0" d="M314.5,83.7c-1.2,0.8-2.3,1.5-3.5,2.3c-1.3-1.7,0.2-2.7,1-3.9c3.2-4.8,7.4-8.9,10.3-13.9
		c7.9-8.6,16.3-16.6,26.5-22.5c2.4,0.1,4.3-1.4,6.3-2.3c2.4-1.1,4.7-1.5,5.7,0.8c-17.9,8.2-31.6,20.6-42.9,36
		c-0.1,0.7-0.5,1.1-1.2,1.2C316,82.1,315.3,82.9,314.5,83.7z"/>
	<path class="st0" d="M316.8,81.4c0.4-0.4,0.8-0.8,1.2-1.2c1.8,0.3,3.6,0.6,5.9,0.9C321.2,84,319.1,87.8,316.8,81.4z"/>
	<path class="st6" d="M597.4,190.6c-1.6,2.6-3.9,4.8-4.8,7.8c-9.9,13.6-18.7,28-27.6,42.2c-5.4,8.6-10.6,17.2-15.9,25.9
		c-7.2,8.9-12.1,19.2-18.5,28.6c-3.4,0.8-5.2,0.5-2.9-3.5c1.1-1.8,2-3.7,3-5.5c16.1-25.3,32.2-50.6,48.3-75.9
		c5.3-7.3,10.3-14.7,13.9-23c3.8-2.8,5.7-7.2,8-11.1c8.1-13.6,18.3-25.4,31.1-34.8c11.3-6.6,22.8-12.6,35.8-15.1
		c8.9-1.7,17.9-2.2,26.8-2.2c59-0.1,118-0.1,177-0.1c1,0,1.9-0.1,2.9,0c1.1,0.1,2.5,0.2,2.5,1.7c0,1.5-1.3,1.9-2.4,2
		c-3.2,0.3-6.5,0.6-9.7,0.6c-58.6,0.1-117.2,0.1-175.8,0.1c-4.5,0-9.2-0.7-13.6,1.2c-17.6,2-33,8.8-46.7,19.9
		C614.9,160.6,605.8,175.3,597.4,190.6z"/>
	<path class="st7" d="M665.2,232c-1.5-4.4,1.8-4.3,4.4-4.4c4.8-0.2,9.6-0.1,14.3-0.1c73.7,0,147.3,0,221,0.1c3,0,6.8-1.3,8.5,2.8
		c-2.1,2-4.7,2.1-7.4,2.1c-78.9,0-157.9,0-236.8,0C667.8,232.5,666.5,232.8,665.2,232z"/>
	<path class="st2" d="M665.2,232c79.5,0,159,0,238.6,0c3.3,0,6.5-0.5,9.6-1.6c0.1,0.5,0.1,1,0.2,1.6c-3.7,1.1-7.5,1.2-11.4,1.2
		c-77.5,0-154.9,0-232.4,0C668.2,233.1,666.6,233,665.2,232z"/>
	<path class="st0" d="M284.6,128.5c-0.5,0-1-0.1-1.5-0.1c1.3-3.7,4.3-3.6,7.5-3.6c93.1,0.1,186.1,0,279.2,0.1
		c6.1,0,12.2,0.2,18.4,0.2c-3.4,1.9-7.1,1.1-10.7,1.1c-94.4,0-188.8,0-283.2,0.1C290.9,126.2,287.2,125.2,284.6,128.5z"/>
	<path class="st0" d="M322.4,68.2c-0.9,4.9-5.2,7.6-7.6,11.6c-1.2,2.1-3.3,3.7-3.8,6.2c-3.8,2.6-3.7,8.3-8.2,10.3
		C307.8,85.8,314.4,76.5,322.4,68.2z"/>
	<ellipse class="st0" cx="582.8" cy="335.7" rx="4.2" ry="2.7"/>
</g>
</svg>
