<svg id="Camada_1" data-name="Camada 1" xmlns="http://www.w3.org/2000/svg" viewBox="0 0 1196.73 770.31"><defs><style>.cls-1{fill:#111;}.cls-2{fill:#ff1d25;}</style></defs><path class="cls-1" d="M1237.3,785.19v41.49H938.68V807.83c-1.54.16-2.44,0-3,.35-20.63,14.25-43.55,19.52-68.48,19.16-39.18-.58-78.39-.43-117.58-.08-34,.31-62.17-12-84.62-37.46a17.49,17.49,0,0,1-1.87-3.41l-2.11,1v39.35H361.92v-8.61c0-27.26.64-54.53-.18-81.76-.84-28.2,3-54.85,21.21-79.55H362.41V614.29H596.27v42.22h-8.82q-57.63,0-115.25,0c-40.61.05-67.69,27.26-67.77,68,0,19.68,0,39.36,0,59.57H659.64c-3-5.41-6.26-10.29-8.65-15.55-2.89-6.35-5.74-12.86-7.38-19.59-1.38-5.71-4-7.17-9.55-7.15-58.93.19-117.85.12-176.78.12h-9.45V699.19h9.52c39.71,0,79.44.5,119.14-.2,27.55-.49,47.55-14.31,58-39.73,10.23-24.83,5.55-48-12.49-67.9C609.33,577.38,593,571,574,571q-100.84.08-201.69,0h-9.84V528.17h9.37c62.56,0,125.13.77,187.67-.28,40.21-.67,74.85,9.46,100.88,42.42a30.05,30.05,0,0,0,3.09-2.71c22.3-26.49,51-39.31,85.39-39.4,41-.1,82-.18,123,0,24.12.13,32.45,2.9,66.26,20.13V528.17h10.13c65.16,0,130.32.35,195.47-.14,37-.27,68.11,11.56,92,40.51a15.24,15.24,0,0,0,2.76,1.86,28.07,28.07,0,0,1,2-3.14c22.38-26.45,51.1-39,85.54-39.08,40.75,0,81.51-.34,122.26.07,58.16.6,102.52,38.89,108.68,95.07,2.28,20.79.9,42,.79,63-.08,16.85.75,33.89-1.44,50.51-6.74,50.93-51.11,89.73-102.48,90.24-44.38.43-88.78.34-133.16,0-30.41-.24-55.79-12.44-76.57-34.47C1242.45,790.76,1240.73,788.89,1237.3,785.19Zm-64.18-128.68h-9.94c-39.2,0-78.39-.2-117.59.07-32.67.23-60.7,23.57-63.34,55-2,23.7-.45,47.69-.44,71.55,0,.38.64.75.71.82H1235c-5-11.65-10.7-22.75-14.47-34.47-2-6.37-4.71-7.69-10.75-7.67-58.66.21-117.33.13-176,.13h-9.45V699.19h9.53c39.46,0,78.91.26,118.36-.09,35.79-.31,64-28.77,64.1-63.83.08-35.37-28.55-64.06-64.59-64.17-61.25-.18-122.51-.06-183.77,0-2.12,0-4.24.36-5.52.47,5.1,11.94,10.47,23.13,14.58,34.76,1.93,5.49,3.89,7.61,10,7.59,58.92-.27,117.84-.16,176.77-.16h9.3ZM1386.9,784.67c20.77,0,41.53.05,62.29,0,37.77-.11,65.64-27.25,66.15-64.94.38-28,.44-56.06,0-84.08-.61-37.37-28.4-64.48-65.69-64.57q-63.06-.15-126.13,0c-36.51.15-64.39,28.32-64.48,64.88q-.11,41.26,0,82.53c0,38.43,27.76,66.07,66.38,66.16C1345.9,784.71,1366.4,784.67,1386.9,784.67Zm-576.92,0c21,0,42,.07,63.06,0,37.59-.16,65.3-27.93,65.39-65.52q.09-41.26,0-82.53c-.08-37.66-27.72-65.44-65.33-65.54q-62.67-.15-125.35,0c-37.63.09-65.3,27.86-65.38,65.48q-.09,41.26,0,82.53c.08,37.6,27.78,65.42,65.33,65.58C768.46,784.74,789.22,784.67,810,784.67Z" transform="translate(-361.64 -154.85)"/><path class="cls-2" d="M363.56,452.73c5.35-5.08,9.31-8.7,13.11-12.47q103.38-102.49,206.77-205C591,227.8,599.13,220.9,607,213.74c39.9-36.3,87.42-53.86,140.73-56.64,23.57-1.22,47.19-2.12,70.78-2.14q259.26-.27,518.53-.1h11.07c-11,11.28-20.72,21.53-30.77,31.44-25.32,24.95-50.91,49.63-76.11,74.71-4.1,4.08-8.2,5.35-13.71,5.35-133.39-.11-266.79-.44-400.18.21-26.84.13-53.83,2.93-80.46,6.63-22.89,3.19-42.49,15.31-59.23,30.92C655.58,334,624.13,364.58,592.51,395c-18.71,18-37.18,36.21-56,54.07-2.37,2.26-6.18,4.23-9.33,4.24-52.42.26-104.85.18-157.27.16C368.64,453.43,367.37,453.16,363.56,452.73Z" transform="translate(-361.64 -154.85)"/><path class="cls-2" d="M1216.5,286.45q-28.66,28.56-57.32,57.12c-13.23,13.19-26.61,26.25-39.55,39.73-4.15,4.33-8.46,5.75-14.31,5.74q-139-.17-278,.11A228.51,228.51,0,0,0,801,391c-14.42,1.73-26.64,8.36-36.94,18.44-13.36,13.06-26.45,26.4-39.93,39.33-2.38,2.29-6.1,4.47-9.22,4.49-48.53.27-97.06.19-145.6.17a39.3,39.3,0,0,1-4.61-.66,49,49,0,0,1,3.12-4c39.45-39.46,79.69-78.18,118.14-118.59,31.37-33,69.8-44.95,113.59-45.1,15.31-.05,30.62-.51,45.93-.51q180.63-.07,361.27,0h9.09Z" transform="translate(-361.64 -154.85)"/><path class="cls-2" d="M1075.31,452.82c2.69-2.86,4.22-4.58,5.85-6.21Q1224.51,303.24,1368,160c2.61-2.61,7-4.88,10.54-4.9,57.59-.3,115.19-.22,172.79-.19,1.7,0,3.39.34,6.18.63-2.41,2.64-4,4.55-5.78,6.3Q1408.21,305,1264.51,448.06c-2.78,2.76-7.43,5.15-11.22,5.17-57.08.33-114.16.24-171.24.21C1080.31,453.44,1078.57,453.13,1075.31,452.82Z" transform="translate(-361.64 -154.85)"/><path class="cls-1" d="M1499.88,922.66c-6.83,2.07-9.88.8-10.68-6.17-1.45-12.6-3.93-25.09-6-37.62a12.36,12.36,0,0,0-3.31-6.89c-.82,2.5-1.82,4.95-2.44,7.49-2.8,11.58-5.47,23.2-8.26,34.79-1.36,5.64-3.7,10.33-10.63,10.36s-9.17-5-10.52-10.48c-2.86-11.57-5.46-23.21-8.21-34.81-.58-2.4-1.37-4.76-2.06-7.13l-2.19-.05c-2.94,16.85-5.88,33.69-8.89,51l-8.94.42c1.68-9.48,3.21-18.25,4.8-27q2.09-11.47,4.27-22.93c1-5.2,3.11-9.39,9.28-9.76,6.49-.38,9.5,3.67,10.88,9,3.3,12.79,6.24,25.68,9.37,38.52a8.4,8.4,0,0,0,3.2,5q4-16.25,8-32.48c1-4,1.87-8.08,3.16-12,1.68-5.12,4.88-8.45,10.85-8.1,6.13.35,8.48,4.39,9.45,9.6C1494,889.76,1496.89,906.08,1499.88,922.66Z" transform="translate(-361.64 -154.85)"/><path class="cls-1" d="M1171,889.78h36.65c2.13,5.68.84,8-4.77,7.9-10.54-.2-21.1-.06-32.07-.06v18c10.79,0,21.33.2,31.85-.08,5.41-.15,7.08,1.84,5.34,7.44h-46.57V905.37c0-11.67.08-23.33,0-35,0-3.66.71-5.88,5.08-5.82,12.44.17,24.89-.1,37.33.25,1.65,0,3.23,2.65,4.85,4.07-1.74,1.31-3.44,3.68-5.21,3.74-10.6.35-21.21.17-32.44.17Z" transform="translate(-361.64 -154.85)"/><path class="cls-1" d="M542.64,889.45c-.17,3.49-.27,5.47-.41,8.29h-37v17.67h36.95c.15,2.94.25,5.08.38,7.7H496.4V865.28h45.84c.11,2.11.22,4.29.38,7.36h-37.3v16.81Z" transform="translate(-361.64 -154.85)"/><path class="cls-1" d="M1339.94,864.6v7c-.76.39-1.41,1-2.07,1-9.07.13-18.14,0-27.2.25-9.67.22-13.79,4.06-14.28,13.59a136.45,136.45,0,0,0,.13,17.86c.66,8.25,4.73,12,13,12.51,3.1.22,6.22.11,9.33.08,14.22-.14,16.37-2.76,14.31-18.34h-18.52v-7.32h27.45c0,7.39,1,15.18-.42,22.51-.69,3.59-5.54,8.5-9.06,9-9.59,1.38-19.47.73-29.24.88a2.59,2.59,0,0,1-.75-.19c-13.27-3.79-17.46-13.55-15.85-36.87.86-12.44,7.41-19.6,19.59-21.25a75.93,75.93,0,0,1,9.29-.66C1323.43,864.54,1331.17,864.6,1339.94,864.6Z" transform="translate(-361.64 -154.85)"/><path class="cls-1" d="M1097.73,922.66V865.1c13.72-.39,27.81-3,40.92,2.61,15.93,6.84,13.17,21.82,12.6,35.08-.45,10.41-7.16,18.45-17.76,19.58C1121.83,923.62,1109.94,922.66,1097.73,922.66Zm8.73-7.07c7.68,0,14.37.21,21-.06,8.47-.34,14-4.13,13.93-11.6,0-10.22,5.15-22.16-7-29.64a4.5,4.5,0,0,0-2.16-.8c-8.41-.06-16.81,0-25.8,0v42.14Z" transform="translate(-361.64 -154.85)"/><path class="cls-1" d="M572.3,893.65c.84-5.33.77-11,2.7-15.93,6.45-16.48,21.16-14,34.47-13.72,12.18.25,20,6.06,21.8,17a86.58,86.58,0,0,1,.54,23.9c-1.32,11.4-7.94,17.67-19.26,19.09a79.87,79.87,0,0,1-19.36.07c-12.32-1.48-18.79-8.64-20-21-.3-3.08-.05-6.21-.05-9.32Zm10.51,0h.2c0,3.88-.77,8,.22,11.58s3,7.67,5.82,9.4c16.34,9.9,33.55.21,33.56-18.48,0-23.19-2.82-25.86-26.05-24.54-9,.52-13.09,4.46-13.72,13.5C582.64,888,582.81,890.83,582.81,893.67Z" transform="translate(-361.64 -154.85)"/><path class="cls-1" d="M1277.69,895.74c.4,9.58-.25,20.34-11,25.3-12.71,5.86-26,5.29-39-.63s-12.57-46.14-.23-52.61c9.44-5,32.58-5.75,41.23.35C1275.44,873,1277.7,879.6,1277.69,895.74Zm-49.73-1.6c0,2.59-.08,5.18,0,7.77.28,7.06,2.5,13.52,10.37,14.19,9.43.79,19.86,4.2,27.41-5.27a10.72,10.72,0,0,0,1.79-5.07,71.78,71.78,0,0,0,.59-9.27c.09-23.32-2.28-25.64-25.17-24.88-10.27.34-14.53,4.51-15,14.76C1227.87,889,1228,891.55,1228,894.14Z" transform="translate(-361.64 -154.85)"/><path class="cls-1" d="M1557.49,897.64H1520.1v17.89h37.27c.18,2.77.32,4.91.49,7.56h-46.59v-58h46.26v7.6h-36.1c-.92,1.1-1.49,1.46-1.54,1.88-1.8,15.06-1.8,15,13.23,15.06q10.91,0,21.79.12a13.24,13.24,0,0,1,2.58.62Z" transform="translate(-361.64 -154.85)"/><path class="cls-1" d="M481,923.23h-8.2V898.3H435.3v24.78h-8.79V865.25l8.4-.81V889h37.34v-23.8l8.7-.56Z" transform="translate(-361.64 -154.85)"/><path class="cls-1" d="M862.72,922.28c8.08-17.86,15.8-35.91,24.41-53.51,3.64-7.45,13-7.2,16.67.46,8.42,17.41,16,35.25,23.94,53-6.91,3-10.72.88-12.17-5.34-1.79-7.68-6.33-10.52-14-9.25a30.84,30.84,0,0,1-8.53,0c-9.61-1.17-17,.41-19.64,11.69-.53,2.29-5.7,3.5-8.73,5.21C864,923.83,863.36,923.06,862.72,922.28Zm19.85-23.46h25.27c-4.12-9.56-7.81-18.13-11.49-26.7l-2.52.08Z" transform="translate(-361.64 -154.85)"/><path class="cls-1" d="M1412.86,922.53c-6.67,2.43-10.78,1-12.25-5.58-1.72-7.61-6.27-10.57-14-9.28a29,29,0,0,1-9.29,0c-9.79-1.62-16.07,1.3-18.9,11.6-.68,2.44-5.73,3.68-8.77,5.46l-2-2.25c8.17-18,15.95-36.21,24.7-53.93,3.61-7.33,13-6.79,16.68.91C1397.38,886.91,1404.93,904.74,1412.86,922.53Zm-45.43-23.42H1393l-11.76-27-2.39.09Z" transform="translate(-361.64 -154.85)"/><path class="cls-1" d="M710.92,897.62v25.44l-8.53.44V864.66c14.55,0,29-.09,43.4.19,1.12,0,3.35,3.08,3,4-.6,1.62-2.71,3.73-4.24,3.78-10.87.32-21.74.17-33.2.17v16.87c10.32,0,20.59-.23,30.84.18,2.33.09,4.57,2.39,6.85,3.67-2.19,1.38-4.33,3.84-6.57,3.94C732.21,897.86,721.9,897.62,710.92,897.62Z" transform="translate(-361.64 -154.85)"/><path class="cls-1" d="M644.3,864.65c14.68,0,28.88-.1,43.06.17,1.2,0,3.53,2.86,3.25,3.77-.49,1.64-2.49,3.91-4,4-7.76.4-15.54.2-23.32.21h-9.81v16.87c10.57,0,21.08.13,31.59-.06,5.59-.1,6.9,2.22,4.71,8H653.19v25.29H644.3Z" transform="translate(-361.64 -154.85)"/><path class="cls-1" d="M1035.22,914.84q8.05-21.74,16.1-43.48c2.62-7.05,2.63-7,11.72-6-2.09,5.66-4.1,11.11-6.12,16.55-4.33,11.65-8.24,23.48-13.26,34.83-1.49,3.35-6.22,7.44-9.31,7.32-3.61-.14-8.84-3.79-10.26-7.21-7-16.66-12.89-33.76-19.38-51.24,6.73-2.22,10.39-1,12.51,5.87,3.81,12.36,8.43,24.48,12.76,36.68.83,2.33,1.93,4.57,2.91,6.85Z" transform="translate(-361.64 -154.85)"/><path class="cls-1" d="M833.31,915.63v6.77c-.61.36-1,.85-1.48.85-9.84,0-19.7.46-29.49-.13-11.51-.68-18.88-7.74-20-19.06-2.89-29.91,3.42-40.7,34.34-39.48,3.62.14,7.26.2,10.87,0,5.7-.35,6.75,2.37,4.83,8.23-8.15,0-16.61-.07-25.08,0-11.53.12-15.43,4-15.71,15.31-.66,26.55.28,27.51,26.85,27.51Z" transform="translate(-361.64 -154.85)"/><path class="cls-1" d="M385.55,872.74h-23c-.26-2.55-.48-4.69-.78-7.52h55.66v7.37H394.79v50.47l-9.24.48Z" transform="translate(-361.64 -154.85)"/><path class="cls-2" d="M1401.76,428.5c-2.39,6.52-4.58,13.13-7.28,19.52-.86,2-3.06,3.48-4.65,5.2-1.39-1.63-3.32-3-4.09-4.93-2.53-6.18-4.64-12.53-8.79-18.74,0,5.92.26,11.86-.14,17.75-.14,2-2,3.88-3,5.81-1-1.77-2.66-3.52-2.71-5.31-.26-10.06-.13-20.13-.13-30.06,6.52-2.57,9.66-.78,11.39,5.35,1.93,6.88,4.77,13.51,8,22.46,3.09-8.91,5.69-15.53,7.66-22.34,1.71-5.89,4.67-8.33,11.41-5.39,0,10.31.1,20.9-.12,31.48,0,1.28-1.8,2.51-2.77,3.77-.94-1.49-2.63-2.94-2.7-4.46-.3-6.63-.12-13.28-.12-19.93Z" transform="translate(-361.64 -154.85)"/><path class="cls-1" d="M979.66,915.53v7.59H936.92V865.58c5.58-2.35,8.27-1,8.14,5.83-.27,14.46-.08,28.94-.08,44.12Z" transform="translate(-361.64 -154.85)"/><path class="cls-1" d="M853.2,923.1h-8.1V865.17h8.1Z" transform="translate(-361.64 -154.85)"/><path class="cls-1" d="M1074,864.63l8.27.43v58.05H1074Z" transform="translate(-361.64 -154.85)"/><path class="cls-1" d="M761.11,865H769v58.1l-7.92.51Z" transform="translate(-361.64 -154.85)"/><path class="cls-2" d="M1348.09,423.48l-11.24-4.25c3.62-.9,7.2-2.19,10.87-2.59a58,58,0,0,1,12.36,0c2.1.22,4.06,1.72,6.09,2.65a47.64,47.64,0,0,1-5.62,2.29c-1.67.46-3.49.4-6.32.68,0,8.63.17,17.08-.12,25.51-.07,1.81-1.76,3.56-2.7,5.33-1.11-1.86-3.09-3.69-3.17-5.6C1347.88,439.31,1348.09,431.08,1348.09,423.48Z" transform="translate(-361.64 -154.85)"/><path class="cls-1" d="M1471.83,742h-8.25c-51.13,0-102.27-.13-153.4.15-6.75,0-8.85-1.57-8.78-8.59.36-37.12.17-74.24.17-111.36v-7.69h170.26ZM1345,657V698.7h84.51V657Z" transform="translate(-361.64 -154.85)"/><path class="cls-1" d="M895.47,614.19v127H725.32v-127ZM852.57,657H768.22v41.72h84.35Z" transform="translate(-361.64 -154.85)"/></svg>
