<svg id="Camada_1" data-name="Camada 1" xmlns="http://www.w3.org/2000/svg" viewBox="0 0 179.77 42.72"><defs><style>.cls-1{fill:#fff;}</style></defs><path class="cls-1" d="M229.26,206c-2.64-1.55-3.54-2.77-2.86-4.85A13.52,13.52,0,0,1,229,197c1.06-1.27,2.47-2.26,3.64-3.45a3.77,3.77,0,0,0,.84-1.84c-1.38,1-2.6,2.19-4.41,2.19a4.52,4.52,0,0,1-4-2.64c-1,1.36-1.89,2.74-3.78,2.54s-2.73-1.3-3.31-3.1c-1.32,1.88-2.84,3.29-5.24,3.12s-3.47-2-4.24-4.12a26.25,26.25,0,0,1-1.73,2.61c-2,2.33-4.69,2-6-.8a24.55,24.55,0,0,1-1.05-3.43l-.76,1.3c-2.25,3.95-6.23,5.57-10.19,4.14-1.65-.59-2-1.45-1.12-2.72.58-.84,1.26-1.13,2.15-.4l.3.2c.83.55,1.66,1.16,2.66.33a2.36,2.36,0,0,0,.45-3,48.29,48.29,0,0,0-3.22-4c-.75,1.24-1.31,2.21-1.91,3.15-1,1.58-2,3.21-3.09,4.69-1,1.26-2.19,2.58-4,2s-1.84-2.41-1.88-3.9c-.07-2.93.11-5.87.18-8.8,0-.36,0-.72,0-1.41-.53.63-.92,1-1.22,1.46-2.39,3.42-3.45,7.35-4.2,11.37-.14.74-.14,1.4-1.11,1.41s-2.07.1-2.35-1.2a11.22,11.22,0,0,1-.21-2.31q0-6,.11-12c0-.57-.31-1.41.79-1.46,1.27,0,2.46.68,2.47,1.59,0,1.92,0,3.84,0,5.76,0,.22,0,.45.07.9.68-1.62,1.23-3,1.88-4.43a11.4,11.4,0,0,1,1.41-2.28c1.57-1.93,3.65-2.06,5.39-.28A2.79,2.79,0,0,1,183,180c0,2.85-.15,5.7-.2,8.56a14.44,14.44,0,0,0,.39,2.26,8.68,8.68,0,0,0,1.49-1.41c1.24-2,2.44-4,3.58-6.11a1.47,1.47,0,0,0-.16-1.17,3.45,3.45,0,0,1,.16-3.71,3.67,3.67,0,0,1,3.39-1.83c1.21.06,1.82.66,1.5,1.83a25.24,25.24,0,0,1-1.53,3.54c2,2,5.73,3.07,5.46,7.39,1.38-1.41,2.5-2.77,2.61-4.48.19-2.84.05-5.7.05-8.77H196.8c-.6,0-1.29,0-1.16-.82s0-1.85,1.26-1.86c1,0,1.95,0,3.09,0,.07-1.25.19-2.58.2-3.91,0-1,.45-1.44,1.44-1.23.52.11,1,.29,1.54.4a1.11,1.11,0,0,1,1,1.4c-.12,1.13-.17,2.27-.26,3.54,1.47.11,2.84.22,4.22.3.59,0,1.08.09,1,.86s-.11,1.37-1,1.39c-1.35,0-2.69,0-4.18,0-.14,4.6-.73,9,0,13.44.1.59.71,1.09,1.09,1.63a6.7,6.7,0,0,0,1.54-1.1,7.73,7.73,0,0,0,1.69-4.75,12.14,12.14,0,0,1,1.55-6.21c1-1.67,2.43-2.86,4.51-2.56a14,14,0,0,1,3,1.18c.34-1.05,1.32-.72,2.28-.53s1.36.75,1.33,1.8c-.07,3.26,0,6.53,0,9.79a5.77,5.77,0,0,0,.32,1.79,1.23,1.23,0,0,0,2.28.38,4.17,4.17,0,0,0,.8-3.22,14.89,14.89,0,0,1,1.32-8.34c1-2.13,2.6-3.18,4.64-2.86a12.29,12.29,0,0,1,2.89,1.27c.1-1,1-.89,1.84-.71s1.78.29,1.75,1.6c-.06,3.42,0,6.84,0,10.45a22.13,22.13,0,0,0,3.77-7.94c.06-.26-.26-.63-.46-.92a2.68,2.68,0,0,1,1.65-4.2,1.6,1.6,0,0,1,2.08,1.73c0,.27,0,.55,0,.88,1.19-.21,2.3-.44,3.42-.6,1.76-.26,2.56.56,2.29,2.32-.31,2.05-.74,4.08-1,6.14a10.36,10.36,0,0,0,.25,3c.29,1.45,1,2.11,1.93,2s1.76-1.66,1.59-2.83a15.46,15.46,0,0,1,.6-7.84,10.09,10.09,0,0,1,1.37-2.57,4.19,4.19,0,0,1,6.71-.3c.51-1.4,1.56-1,2.56-.75s1.21.85,1.19,1.8c-.06,3.38-.07,6.77,0,10.15,0,.89,0,2.07,1.2,2.28s1.67-.91,2-1.8a13.16,13.16,0,0,0,.75-3.54c.11-2.73.09-5.47.05-8.2,0-1,.43-1.27,1.35-1.11,2.06.36,2.06.35,2.06,2.5,0,1.22,0,2.44,0,3.67,0,.06.06.11.14.25.61-1.64,1.19-3.23,1.8-4.81.39-1,.87-2,2.29-1.62,1.6.36,2.32,1.11,2.34,2.66,0,2.15,0,4.31,0,6.47l.31,0c.73-2.4,1.42-4.81,2.23-7.19.62-1.85,1.09-2.16,2.32-1.9,2.11.44,2.81,1.26,2.79,3.05,0,3,0,5.94.06,8.91,0,1.08.22,2.49,1.53,2.6s1.29-1.41,1.7-2.33c.3-.65-.06-2,1.42-1.52v2.21c-.16.4-.34.8-.48,1.21a3.43,3.43,0,0,1-3,2.68,3.52,3.52,0,0,1-3.47-2.07,4.43,4.43,0,0,1-.63-1.57q-.36-2.73-.54-5.46c-.08-1.11,0-2.23,0-3.7-.28.49-.39.64-.46.81a26.66,26.66,0,0,0-2.22,9.33,1.34,1.34,0,0,1-1.93,1.35,2.31,2.31,0,0,1-1.75-2c-.31-2.54-.54-5.1-.8-7.65-.06-.52-.1-1.05-.17-1.8a5.52,5.52,0,0,0-.49.61c-.19.36-.37.73-.53,1.1a22,22,0,0,0-1.78,8.92c0,2.12-.6,2.47-2.71,2.08-1.24-.23-1.33-1.06-1.44-2.26-.89,1.71-2,2.59-3.76,2.33s-2.56-1.51-3.16-3.09c-1.08,1.68-2.33,2.86-4.23,3.1A4.24,4.24,0,0,1,253,191.4c-1.82,3.26-5.2,3.09-7,.16a4.48,4.48,0,0,1-.73-1.92,49.85,49.85,0,0,1-.07-5.33,29.09,29.09,0,0,1,.5-3.33c-2.41-.37-2.49-.31-3.34,1.75a34.47,34.47,0,0,1-5.16,8.7,3,3,0,0,0-.57,1.64c-.08,1.79,0,3.59-.05,5.38-.19,3.22-1,6.12-4.39,7.55Zm32.09-21.24a26.37,26.37,0,0,0-.91-4.16c-.64-1.66-2.42-1.78-3.48-.35a4.56,4.56,0,0,0-.64,1.31,13.91,13.91,0,0,0-.28,7.93c.25,1,.61,2,1.78,2.06a2.15,2.15,0,0,0,2.15-1.7C260.55,188.13,260.93,186.35,261.35,184.76Zm-43.91.09c-.18-1.33-.27-2.39-.48-3.42s-.72-2.05-2-2.13-1.89.86-2.29,1.88a13,13,0,0,0-.76,6.47,9.91,9.91,0,0,0,.68,2.7c.67,1.53,2,1.66,3.07.35a4.61,4.61,0,0,0,.88-1.59C216.91,187.63,217.18,186.12,217.44,184.85Zm10.06,1.22a29.47,29.47,0,0,0,.89,4c.23.62,1,1.46,1.54,1.44a3.58,3.58,0,0,0,2-1.28,4.12,4.12,0,0,0,.75-1.78,15,15,0,0,0,.28-6.88c-.22-1-.57-2-1.78-2.22a2.14,2.14,0,0,0-2.37,1.71C228.24,182.71,227.9,184.46,227.5,186.07Zm6.09,9.24c-2,2-3.8,3.69-4.59,6.15-.46,1.45-.08,2.49,1,2.91s2.21-.18,2.78-1.57C233.69,200.49,233.59,198.06,233.59,195.31Z" transform="translate(-111.23 -163.28)"/><path class="cls-1" d="M148.14,181.93c0,3.14,0,6.29,0,9.43a9.12,9.12,0,0,1-9.4,9.37q-9,0-18.08,0a9.16,9.16,0,0,1-9.39-9.28q-.09-9.44,0-18.86a9.18,9.18,0,0,1,9.49-9.3q9,0,18,0a9.12,9.12,0,0,1,9.42,9.34C148.16,175.73,148.14,178.83,148.14,181.93Zm-34,.1c0,2.61,0,5.23,0,7.84a7.77,7.77,0,0,0,8,8q7.63,0,15.25,0a7.74,7.74,0,0,0,7.94-7.78c.05-5.39.06-10.77,0-16.16a7.63,7.63,0,0,0-7.75-7.68q-7.8-.06-15.61,0a7.67,7.67,0,0,0-7.82,7.85C114.11,176.73,114.13,179.38,114.13,182Z" transform="translate(-111.23 -163.28)"/><path class="cls-1" d="M162.23,196.94c.2-.76.37-1.26.46-1.76a23.83,23.83,0,0,0,.56-3.73c.09-6.65.1-13.3.13-19.94a1.69,1.69,0,0,0-.34-1.06,14.62,14.62,0,0,0-1.66,2.14c-1.68,3.22-2.6,6.52-.49,10,.12.19,0,.51.06.77a2.68,2.68,0,0,1-1,0,4.72,4.72,0,0,1-3.18-3.73,9.85,9.85,0,0,1,.25-3.82,11.67,11.67,0,0,1,5.24-6.84,5.06,5.06,0,0,1,2.76-.65c1.6.08,2.09.77,2.09,2.36q0,9.42,0,18.84a9.58,9.58,0,0,1-1.3,5.15A4.07,4.07,0,0,1,162.23,196.94Z" transform="translate(-111.23 -163.28)"/><path class="cls-1" d="M129.75,172.62A9.41,9.41,0,1,1,120.3,182,9.43,9.43,0,0,1,129.75,172.62Zm-.07,16.45a7,7,0,0,0,7-7,7,7,0,1,0-14-.09A7,7,0,0,0,129.68,189.07Z" transform="translate(-111.23 -163.28)"/><path class="cls-1" d="M136.72,172.27a2.72,2.72,0,0,1,2.74-2.84,2.77,2.77,0,0,1,2.87,2.74,2.84,2.84,0,0,1-2.76,2.87A2.81,2.81,0,0,1,136.72,172.27Z" transform="translate(-111.23 -163.28)"/></svg>